# xmcd
#
# Track frame offsets:
#	150
#	13258
#	27839
#	48490
#	61988
#	75863
#	89600
#	107077
#	119207
#	139116
#	155009
#	171525
#
# Disc length: 2392 seconds
#
# Revision: 2
# Processed by: cddbd v1.5.2PL0 Copyright (c) Steve Scherf et al.
# Submitted via: EasyCDDAExtractor 12.0.0.1
#
DISCID=a509560c
DTITLE=심성락 - 바람의 노래를 들어라
DYEAR=2009
DGENRE=Blues
TTITLE0=My Mother Mermaid (인어공주)
TTITLE1=La Dolce Vita (달콤한 인생)
TTITLE2=Elegy for Us
TTITLE3=Libertango (feat. Richard Galliano)
TTITLE4=One Fine Spring Day (봄날은 간다)
TTITLE5=자전거 (효자동 이발사)
TTITLE6=꽃밭에서 (feat. Richard Galliano)
TTITLE7=Love Affair Theme
TTITLE8=매화가 흐드러진 날
TTITLE9=바람이 운다
TTITLE10=나는 순수한가
TTITLE11=재회
EXTD=YEAR: 2009
EXTT0=
EXTT1=
EXTT2=
EXTT3=
EXTT4=
EXTT5=
EXTT6=
EXTT7=
EXTT8=
EXTT9=
EXTT10=
EXTT11=
PLAYORDER=
